<?xml version="1.0" encoding="UTF-8" standalone="no" ?>
<!DOCTYPE svg PUBLIC "-//W3C//DTD SVG 1.1//EN" "http://www.w3.org/Graphics/SVG/1.1/DTD/svg11.dtd">
<svg xmlns="http://www.w3.org/2000/svg" xmlns:xlink="http://www.w3.org/1999/xlink" version="1.1" width="1080" height="1080" viewBox="0 0 1080 1080" xml:space="preserve">
<desc>Created with Fabric.js 5.2.4</desc>
<defs>
</defs>
<g transform="matrix(1 0 0 1 540 540)" id="e192a9e9-29ff-454e-aeb0-d65aedf6c09b"  >
<rect style="stroke: none; stroke-width: 1; stroke-dasharray: none; stroke-linecap: butt; stroke-dashoffset: 0; stroke-linejoin: miter; stroke-miterlimit: 4; fill: rgb(255,255,255); fill-rule: nonzero; opacity: 1; visibility: hidden;" vector-effect="non-scaling-stroke"  x="-540" y="-540" rx="0" ry="0" width="1080" height="1080" />
</g>
<g transform="matrix(1 0 0 1 540 540)" id="e24cbb6c-5c3c-4a51-9f42-e2ef654f343e"  >
</g>
<g transform="matrix(1 0 0 1 540 540)"  >
<g style="" vector-effect="non-scaling-stroke"   >
		<g transform="matrix(33.33 0 0 33.33 -0.04 -0.04)"  >
<path style="stroke: none; stroke-width: 1; stroke-dasharray: none; stroke-linecap: butt; stroke-dashoffset: 0; stroke-linejoin: miter; stroke-miterlimit: 4; fill: none; fill-rule: nonzero; opacity: 1;" vector-effect="non-scaling-stroke"  transform=" translate(-12, -12)" d="M 24 0 L 24 24 L 0 24 L 0 0 L 24 0 Z M 12.5934901 23.257841 L 12.5819402 23.2595131 L 12.5108777 23.2950439 L 12.4918791 23.2987469 L 12.4918791 23.2987469 L 12.4767152 23.2950439 L 12.4056548 23.2595131 C 12.3958229 23.2563662 12.3870493 23.2590235 12.3821421 23.2649074 L 12.3780323 23.275831 L 12.360941 23.7031097 L 12.3658947 23.7234994 L 12.3769048 23.7357139 L 12.4804777 23.8096931 L 12.4953491 23.8136134 L 12.4953491 23.8136134 L 12.5071152 23.8096931 L 12.6106902 23.7357139 L 12.6232938 23.7196733 L 12.6232938 23.7196733 L 12.6266527 23.7031097 L 12.609561 23.275831 C 12.6075724 23.2657013 12.6010112 23.2592993 12.5934901 23.257841 L 12.5934901 23.257841 Z M 12.8583906 23.1452862 L 12.8445485 23.1473072 L 12.6598443 23.2396597 L 12.6498822 23.2499052 L 12.6498822 23.2499052 L 12.6471943 23.2611114 L 12.6650943 23.6906389 L 12.6699349 23.7034178 L 12.6699349 23.7034178 L 12.678386 23.7104931 L 12.8793402 23.8032389 C 12.8914285 23.8068999 12.9022333 23.8029875 12.9078286 23.7952264 L 12.9118235 23.7811639 L 12.8776777 23.1665331 C 12.8752882 23.1545897 12.8674102 23.1470016 12.8583906 23.1452862 L 12.8583906 23.1452862 Z M 12.1430473 23.1473072 C 12.1332178 23.1423925 12.1221763 23.1452606 12.1156365 23.1525954 L 12.1099173 23.1665331 L 12.0757714 23.7811639 C 12.0751323 23.7926639 12.0828099 23.8018602 12.0926481 23.8045676 L 12.108256 23.8032389 L 12.3092106 23.7104931 L 12.3186497 23.7024347 L 12.3186497 23.7024347 L 12.3225043 23.6906389 L 12.340401 23.2611114 L 12.337245 23.2485176 L 12.337245 23.2485176 L 12.3277531 23.2396597 L 12.1430473 23.1473072 Z" stroke-linecap="round" />
</g>
		<g transform="matrix(33.33 0 0 33.33 -0.03 16.63)"  >
<path style="stroke: none; stroke-width: 1; stroke-dasharray: none; stroke-linecap: butt; stroke-dashoffset: 0; stroke-linejoin: miter; stroke-miterlimit: 4; fill: rgb(9,36,75); fill-rule: evenodd; opacity: 1;" vector-effect="non-scaling-stroke"  transform=" translate(-12, -12.5)" d="M 5.55279 5.65836 C 6.06096 4.64201 7.09975 4 8.23607 4 L 15.7639 4 C 16.9002 4 17.939 4.64201 18.4472 5.65836 L 19.8326 8.4292 C 20.0766 8.32868 20.3173 8.22126 20.5532 8.10535 C 21.0471 7.85867 21.6475 8.05891 21.8944 8.55276 C 22.1414 9.04674 21.9412 9.64741 21.4472 9.8944 C 21.2061 10.0018 20.9645 10.1063 20.7217 10.2073 L 21.6833 12.1305 C 21.8916 12.5471 22 13.0064 22 13.4721 L 22 16 C 22 16.8885 21.6137 17.6868 21 18.2361 L 21 19.5 C 21 20.3284 20.3284 21 19.5 21 C 18.6716 21 18 20.3284 18 19.5 L 18 19 L 6 19 L 6 19.5 C 6 20.3284 5.32843 21 4.5 21 C 3.67157 21 3 20.3284 3 19.5 L 3 18.2361 C 2.38625 17.6868 2 16.8885 2 16 L 2 13.4721 C 2 13.0064 2.10844 12.5471 2.31672 12.1305 L 3.27037 10.2232 C 3.02889 10.1209 2.79023 10.0122 2.55528 9.89564 C 2.06661 9.65198 1.86107 9.04179 2.10558 8.55276 C 2.3525 8.05891 2.95292 7.85866 3.44683 8.10535 C 3.68313 8.22152 3.92369 8.32893 4.1673 8.42934 L 5.55279 5.65836 Z M 9 14.5 C 9 15.3284 8.32843 16 7.5 16 C 6.67157 16 6 15.3284 6 14.5 C 6 13.6716 6.67157 13 7.5 13 C 8.32843 13 9 13.6716 9 14.5 Z M 16.5 16 C 17.3284 16 18 15.3284 18 14.5 C 18 13.6716 17.3284 13 16.5 13 C 15.6716 13 15 13.6716 15 14.5 C 15 15.3284 15.6716 16 16.5 16 Z M 7.34166 6.55279 C 7.51105 6.214 7.85731 6 8.23608 6 L 15.7639 6 C 16.1427 6 16.489 6.214 16.6584 6.55279 L 17.9274 9.09084 C 16.3801 9.55496 14.295 9.99998 12 9.99998 C 9.70508 9.99998 7.61997 9.55495 6.07263 9.09084 L 7.34166 6.55279 Z" stroke-linecap="round" />
</g>
</g>
</g>
<g transform="matrix(1 0 0 1 540 903)" style="" id="d1852ff4-ff7f-4f48-8c20-d877d3a39b24"  >
		<text xml:space="preserve" font-family="Raleway" font-size="105" font-style="normal" font-weight="900" style="stroke: none; stroke-width: 1; stroke-dasharray: none; stroke-linecap: butt; stroke-dashoffset: 0; stroke-linejoin: miter; stroke-miterlimit: 4; fill: rgb(0,0,0); fill-rule: nonzero; opacity: 1; white-space: pre;" ><tspan x="-259.1" y="32.98" >DriveNow</tspan></text>
</g>
</svg>